<!DOCTYPE svg PUBLIC "-//W3C//DTD SVG 1.1//EN" "http://www.w3.org/Graphics/SVG/1.1/DTD/svg11.dtd">
<!-- Uploaded to: SVG Repo, www.svgrepo.com, Transformed by: SVG Repo Mixer Tools -->
<svg fill="#000000" height="140px" width="140px" version="1.1" id="Layer_1" xmlns="http://www.w3.org/2000/svg" xmlns:xlink="http://www.w3.org/1999/xlink" viewBox="0 0 512 512" xml:space="preserve">
<g id="SVGRepo_bgCarrier" stroke-width="0"/>
<g id="SVGRepo_tracerCarrier" stroke-linecap="round" stroke-linejoin="round"/>
<g id="SVGRepo_iconCarrier"> <g> <g> <path d="M443.747,209.792c-1.442-4.073-5.294-6.794-9.614-6.794H313.728l93.678-188.255c1.573-3.162,1.398-6.912-0.46-9.915 C405.086,1.827,401.806,0,398.274,0H220.141c-3.87,0-7.407,2.191-9.13,5.655L90.713,247.408c-1.574,3.162-1.399,6.912,0.46,9.915 c1.859,3.002,5.139,4.828,8.67,4.828h85.883L68.736,497.257c-2.138,4.296-0.992,9.501,2.751,12.501 c1.864,1.495,4.122,2.242,6.38,2.242c2.274,0,4.549-0.759,6.419-2.273l356.267-288.605 C443.91,218.403,445.19,213.864,443.747,209.792z M107.893,464.35l103.43-207.855c1.574-3.162,1.399-6.912-0.46-9.915 c-1.859-3.002-5.139-4.828-8.67-4.828H116.31L226.459,20.398h155.348L288.13,208.653c-1.573,3.162-1.398,6.912,0.46,9.915 c1.859,3.002,5.14,4.828,8.671,4.828h108.077L107.893,464.35z"/> </g> </g> <g> <g> <path d="M350.619,239.255c-3.546-4.378-9.967-5.051-14.345-1.505l-7.139,5.783c-4.377,3.546-5.052,9.968-1.505,14.345 c2.015,2.488,4.961,3.78,7.931,3.78c2.255,0,4.524-0.745,6.414-2.274l7.139-5.783C353.49,250.054,354.165,243.632,350.619,239.255 z"/> </g> </g> <g> <g> <path d="M319,264.866c-3.547-4.378-9.968-5.051-14.345-1.505l-61.706,49.988c-4.376,3.546-5.051,9.969-1.505,14.345 c2.015,2.489,4.96,3.78,7.931,3.78c2.255,0,4.525-0.744,6.413-2.274l61.707-49.988C321.871,275.665,322.546,269.243,319,264.866z"/> </g> </g> </g>
</svg>